<?xml version="1.0" encoding="utf-8"?>
<!-- Generator: Adobe Illustrator 16.0.0, SVG Export Plug-In . SVG Version: 6.00 Build 0)  -->
<!DOCTYPE svg PUBLIC "-//W3C//DTD SVG 1.1//EN" "http://www.w3.org/Graphics/SVG/1.1/DTD/svg11.dtd">
<svg version="1.1" id="Layer_1" xmlns="http://www.w3.org/2000/svg" xmlns:xlink="http://www.w3.org/1999/xlink" x="0px" y="0px"
	 width="33.859px" height="57.725px" viewBox="0 0 33.859 57.725" enable-background="new 0 0 33.859 57.725" xml:space="preserve">
<path fill="#F9A01B" d="M4.911,6.979c0,0,7.957,5.521,9.476,15.223c0,0,1.948,8.201,2.217,11.98c0,0-0.163,7.633,5.496,13.813
	c0,0,7.458,7.913,10.991,9.728c0,0-5.994-7.711,0.77-12.865c0,0-6.069,3.679-10.735-2.321s-3.812-9.177-1.858-13.364
	c3.021-6.478,3.788-10.102,1.427-16.87c-0.015,0.343-1.132-4.733-8.644-8.901c0,0-2.911-1.531-8.335-2.933
	c0,0-10.147-2.505-3.396,4.064L4.911,6.979z"/>
</svg>
